HIERARCHY
ROOT Hips
{
	OFFSET 0.000000 0.000000 0.000000
	CHANNELS 6 Xposition Yposition Zposition Zrotation Yrotation Xrotation 
	JOINT LowerBack
	{
		OFFSET 0.000000 0.000000 0.000000
		CHANNELS 3 Zrotation Yrotation Xrotation
		JOINT Spine
		{
			OFFSET 0.028270 2.035590 -0.193380
			CHANNELS 3 Zrotation Yrotation Xrotation
			JOINT Spine1
			{
				OFFSET 0.056720 2.048850 -0.042750
				CHANNELS 3 Zrotation Yrotation Xrotation
				JOINT Neck
				{
					OFFSET 0.000000 0.000000 0.000000
					CHANNELS 3 Zrotation Yrotation Xrotation
					JOINT Neck1
					{
						OFFSET -0.054170 1.746240 0.172020
						CHANNELS 3 Zrotation Yrotation Xrotation
						JOINT Head
						{
							OFFSET 0.104070 1.761360 -0.123970
							CHANNELS 3 Zrotation Yrotation Xrotation
							End Site
							{
								OFFSET 0.000000 0.000000 0.000000
							}
						}
					}
				}
				JOINT LeftShoulder
				{
					OFFSET 0.000000 0.000000 0.000000
					CHANNELS 3 Zrotation Yrotation Xrotation
					JOINT LeftArm
					{
						OFFSET 3.362410 1.200890 -0.311210
						CHANNELS 3 Zrotation Yrotation Xrotation
						JOINT LeftForeArm
						{
							OFFSET 4.983000 -0.000000 -0.000000
							CHANNELS 3 Zrotation Yrotation Xrotation
							JOINT LeftHand
							{
								OFFSET 3.483560 -0.000000 -0.000000
								CHANNELS 3 Zrotation Yrotation Xrotation
								JOINT LeftFingerBase
								{
									OFFSET 0.000000 0.000000 0.000000
									CHANNELS 3 Zrotation Yrotation Xrotation
									JOINT LeftHandIndex1
									{
										OFFSET 0.715260 -0.000000 -0.000000
										CHANNELS 3 Zrotation Yrotation Xrotation
										End Site
										{
											OFFSET 0.000000 0.000000 0.000000
										}
									}
								}
								JOINT LThumb
								{
									OFFSET 0.000000 0.000000 0.000000
									CHANNELS 3 Zrotation Yrotation Xrotation
									End Site
									{
										OFFSET 0.000000 0.000000 0.000000
									}
								}
							}
						}
					}
				}
				JOINT RightShoulder
				{
					OFFSET 0.000000 0.000000 0.000000
					CHANNELS 3 Zrotation Yrotation Xrotation
					JOINT RightArm
					{
						OFFSET -3.136600 1.374050 -0.404650
						CHANNELS 3 Zrotation Yrotation Xrotation
						JOINT RightForeArm
						{
							OFFSET -5.241900 -0.000000 -0.000000
							CHANNELS 3 Zrotation Yrotation Xrotation
							JOINT RightHand
							{
								OFFSET -3.444170 -0.000000 -0.000000
								CHANNELS 3 Zrotation Yrotation Xrotation
								JOINT RightFingerBase
								{
									OFFSET 0.000000 0.000000 0.000000
									CHANNELS 3 Zrotation Yrotation Xrotation
									JOINT RightHandIndex1
									{
										OFFSET -0.622530 -0.000000 -0.000000
										CHANNELS 3 Zrotation Yrotation Xrotation
										End Site
										{
											OFFSET 0.000000 0.000000 0.000000
										}
									}
								}
								JOINT RThumb
								{
									OFFSET 0.000000 0.000000 0.000000
									CHANNELS 3 Zrotation Yrotation Xrotation
									End Site
									{
										OFFSET 0.000000 0.000000 0.000000
									}
								}
							}
						}
					}
				}
			}
		}
	}
}
}
MOTION
Frames: 9
Frame Time: 0.008333
-4.762156 17.236125 0.401855 6.714106 -61.252812 7.735335 -2.226621 2.447073 -9.329127 -1.212848 2.387265 -4.753395 -5.365201 2.454474 -1.209460 3.503245 3.983825 -0.425473 -4.108644 -0.368162 1.912054 0.000000 0.000000 0.000000 -5.043034 8.169305 -1.241518 -77.704365 -37.616666 36.684291 -177.232021 -64.913313 179.849317 16.146828 -21.021575 -3.411376 -0.756191 1.707243 -0.000000 0.000000 0.000000 0.000000 0.000000 0.000000 0.000000 7.879339 9.393814 2.791554 43.520405 25.459573 1.013384 0.526158 57.853857 0.042183 6.696386 -5.737474 -0.325775 -0.114084 -0.249530 -0.000000 0.000000 0.000000 0.000000 0.000000 0.000000 0.000000 
-4.764286 17.228578 0.394615 7.021020 -61.977541 7.542940 -2.249711 2.342144 -9.431357 -1.248095 2.277389 -4.770021 -5.570415 2.348968 -1.200986 4.024776 3.635585 -0.543134 -4.248820 -0.376067 1.874891 0.000000 0.000000 0.000000 -4.909368 8.208057 -1.142887 -76.950901 -37.215505 36.105021 -177.185548 -64.822245 179.850068 16.264289 -21.071055 -3.444997 -0.765199 1.709818 -0.000000 0.000000 0.000000 0.000000 0.000000 0.000000 0.000000 8.959384 9.015647 2.672357 45.270191 24.829364 2.254496 0.557706 58.933816 0.042275 6.810399 -5.791519 -0.334880 -0.115396 -0.244250 -0.000000 0.000000 0.000000 0.000000 0.000000 0.000000 0.000000 
-4.766916 17.220857 0.386019 7.381243 -62.723827 7.304242 -2.291040 2.233473 -9.529063 -1.281332 2.166990 -4.788829 -5.751656 2.241655 -1.206588 4.515736 3.309150 -0.656323 -4.381335 -0.383654 1.839428 0.000000 0.000000 0.000000 -4.743615 8.216618 -1.063831 -76.244794 -36.697578 35.493272 -177.158618 -64.727561 179.850189 16.409366 -21.126059 -3.484720 -0.772970 1.710594 -0.000000 0.000000 0.000000 0.000000 0.000000 0.000000 0.000000 9.979652 8.653018 2.548177 46.965732 24.133619 3.471155 0.588380 59.809387 0.041338 6.750402 -5.616888 -0.321577 -0.114681 -0.241849 -0.000000 0.000000 0.000000 0.000000 0.000000 0.000000 0.000000 
-4.770051 17.213109 0.376051 7.794160 -63.495032 7.027664 -2.349452 2.122395 -9.629627 -1.312905 2.056988 -4.809654 -5.910612 2.133500 -1.218448 4.974870 2.987590 -0.774204 -4.504573 -0.390755 1.803324 0.000000 0.000000 0.000000 -4.549516 8.214535 -1.005539 -75.596848 -36.088933 34.873030 -177.149315 -64.644159 179.849941 16.569637 -21.178429 -3.526652 -0.779289 1.709056 -0.000000 0.000000 0.000000 0.000000 0.000000 0.000000 0.000000 10.932986 8.294288 2.419905 48.606464 23.390792 4.675431 0.619271 60.496493 0.039589 6.550435 -5.258442 -0.291165 -0.112237 -0.241675 -0.000000 0.000000 0.000000 0.000000 0.000000 0.000000 0.000000 
-4.772844 17.205519 0.364501 8.254134 -64.288469 6.698348 -2.420225 2.010297 -9.711422 -1.340957 1.949273 -4.830973 -6.041805 2.026076 -1.245999 5.395297 2.686826 -0.888571 -4.614447 -0.397172 1.768936 0.000000 0.000000 0.000000 -4.321636 8.181739 -0.966195 -75.020881 -35.369026 34.237763 -177.160956 -64.577636 179.849445 16.723408 -21.225691 -3.565709 -0.782783 1.704811 -0.000000 0.000000 0.000000 0.000000 0.000000 0.000000 0.000000 11.790949 7.958183 2.291354 50.215064 22.572288 5.831228 0.650104 61.020433 0.037406 6.274182 -4.780240 -0.252046 -0.108831 -0.242864 -0.000000 0.000000 0.000000 0.000000 0.000000 0.000000 0.000000 
-4.775456 17.198183 0.351480 8.762732 -65.106754 6.327170 -2.499574 1.898422 -9.785378 -1.365968 1.844174 -4.852428 -6.149783 1.920007 -1.278225 5.778466 2.389483 -1.010324 -4.710488 -0.402785 1.733365 0.000000 0.000000 0.000000 -4.073023 8.143829 -0.944377 -74.511614 -34.580646 33.607278 -177.188769 -64.538586 179.848974 16.861509 -21.261836 -3.598892 -0.783689 1.697728 -0.000000 0.000000 0.000000 0.000000 0.000000 0.000000 0.000000 12.555404 7.631808 2.164095 51.787017 21.706296 6.946862 0.681990 61.389970 0.035011 5.961064 -4.236242 -0.210525 -0.104783 -0.244660 -0.000000 0.000000 0.000000 0.000000 0.000000 0.000000 0.000000 
-4.777487 17.191256 0.336998 9.317297 -65.949680 5.913414 -2.581815 1.787759 -9.848746 -1.387563 1.742047 -4.872413 -6.237277 1.815913 -1.310091 6.124768 2.089147 -1.144204 -4.791806 -0.407482 1.695315 0.000000 0.000000 0.000000 -3.817648 8.112608 -0.936889 -74.059667 -33.752826 32.988527 -177.229373 -64.534041 179.848703 16.975928 -21.284783 -3.624208 -0.782061 1.687854 -0.000000 0.000000 0.000000 0.000000 0.000000 0.000000 0.000000 13.224531 7.311540 2.040571 53.322465 20.808461 8.014371 0.715491 61.613632 0.032646 5.652598 -3.679161 -0.171501 -0.100501 -0.246363 -0.000000 0.000000 0.000000 0.000000 0.000000 0.000000 0.000000 
-4.778452 17.184786 0.321108 9.915221 -66.814890 5.450775 -2.660211 1.679660 -9.892453 -1.404619 1.643820 -4.889769 -6.304125 1.714818 -1.343531 6.433623 1.791310 -1.287035 -4.857896 -0.411233 1.655621 0.000000 0.000000 0.000000 -3.562623 8.080354 -0.940483 -73.656519 -32.889368 32.371924 -177.281410 -64.559622 179.848688 17.058791 -21.296950 -3.640365 -0.777676 1.675539 -0.000000 0.000000 0.000000 0.000000 0.000000 0.000000 0.000000 13.794960 7.002488 1.924317 54.823220 19.880410 9.012826 0.750630 61.701067 0.030517 5.385682 -3.154641 -0.138181 -0.096408 -0.247411 -0.000000 0.000000 0.000000 0.000000 0.000000 0.000000 0.000000 
-4.778202 17.178846 0.303981 10.556286 -67.701857 4.939143 -2.729130 1.575052 -9.917027 -1.416871 1.549580 -4.903482 -6.353753 1.617131 -1.373900 6.707468 1.491060 -1.441726 -4.909719 -0.414047 1.613407 0.000000 0.000000 0.000000 -3.322835 8.055181 -0.951938 -73.285368 -32.014470 31.756986 -177.340830 -64.612544 179.848993 17.111762 -21.300892 -3.648159 -0.771077 1.661269 -0.000000 0.000000 0.000000 0.000000 0.000000 0.000000 0.000000 14.275010 6.699451 1.817329 56.281677 18.942028 9.936175 0.787890 61.656194 0.028723 5.178652 -2.693120 -0.111565 -0.092673 -0.247442 0.000000 0.000000 0.000000 0.000000 0.000000 0.000000 0.000000 
